#!OML:ASF \\sashay\E\basketball\basketball\Project 1\Capture day 1\Session 1\Subject.ASF
:FULLY-SPECIFIED
:DEGREES
250
root -2.19748 15.1078 1.15348 168.391 -61.7249 -168.569
lowerback 16.807 0.806071 -8.10839
upperback 4.27837 -0.550243 1.42289
thorax -4.73598 -0.344037 6.26231
lowerneck 13.1681 -8.55256 -24.5576
upperneck 1.58378 -17.2196 34.6542
head 3.70863 -10.1333 15.8844
rclavicle 7.05686e-014 1.74931e-014
rhumerus 54.8584 6.83072 -57.4534
rradius 91.8568
rwrist -32.889
rhand -26.72 40.0082
rfingers 7.12502
rthumb -0.149677 10.0285
lclavicle 7.05686e-014 1.74931e-014
lhumerus 58.2655 -3.27568 65.7809
lradius 87.0527
lwrist 45.2131
lhand -18.2607 26.5227
lfingers 7.12502
lthumb 8.01874 56.3506
rfemur -19.3759 -16.6848 17.7077
rtibia 74.9008
rfoot -9.03924 -11.6604
rtoes -43.1922
lfemur -15.9843 16.2644 -10.7681
ltibia 59.6338
lfoot -15.7908 -22.2999
ltoes 6.6103
251
root -2.2308 15.1262 1.0366 168.976 -63.861 -169.311
lowerback 17.8294 0.857856 -9.14586
upperback 4.5679 -0.794073 1.2655
thorax -4.91275 -0.473214 6.75929
lowerneck 12.5474 -9.06575 -23.6267
upperneck 1.1657 -17.6223 34.8752
head 3.77793 -10.2934 15.6627
rclavicle -1.03368e-014 2.8625e-014
rhumerus 54.7565 9.04558 -57.7877
rradius 91.8047
rwrist -31.297
rhand -26.2946 40.082
rfingers 7.12502
rthumb 0.261213 10.1024
lclavicle -1.03368e-014 2.8625e-014
lhumerus 55.8231 -3.8986 67.4641
lradius 88.8459
lwrist 44.8291
lhand -18.2596 26.4263
lfingers 7.12502
lthumb 8.01983 56.2542
rfemur -21.7427 -17.1305 17.7672
rtibia 74.657
rfoot -10.6987 -10.7431
rtoes -41.2653
lfemur -15.7187 16.5912 -11.0514
ltibia 59.1056
lfoot -14.4152 -23.3913
ltoes 12.4442
252
root -2.26072 15.1229 0.920296 169.309 -66.029 -169.693
lowerback 18.7429 0.902775 -9.89797
upperback 5.00325 -1.00157 1.19277
thorax -4.87166 -0.609332 7.17601
lowerneck 12.2456 -9.62257 -23.1017
upperneck -0.0132012 -18.0611 35.5657
head 3.69617 -10.5472 15.7441
rclavicle 5.04913e-014 -1.35174e-014
rhumerus 53.9102 9.98208 -57.3058
rradius 92.9766
rwrist -31.093
rhand -25.614 39.7946
rfingers 7.12502
rthumb 0.918594 9.81686
lclavicle 5.04913e-014 -1.35174e-014
lhumerus 53.652 -4.4915 69.1727
lradius 90.8181
lwrist 44.3134
lhand -18.2636 26.7341
lfingers 7.12502
lthumb 8.01596 56.5621
rfemur -24.212 -17.858 18.2392
rtibia 74.0144
rfoot -9.86537 -11.791
rtoes -47.0655
lfemur -15.7439 17.1158 -11.1243
ltibia 58.8131
lfoot -14.4652 -23.7538
ltoes 8.74997
253
root -2.28614 15.1409 0.792815 168.76 -68.2113 -169.041
lowerback 19.525 0.84096 -10.1911
upperback 5.63062 -1.25897 1.16079
thorax -4.54346 -0.805238 7.37913
lowerneck 11.9258 -10.2027 -22.7065
upperneck -1.39906 -18.516 36.4483
head 3.61355 -10.8391 15.929
rclavicle -2.98177e-014 5.56597e-015
rhumerus 53.3261 10.968 -57.0369
rradius 94.2405
rwrist -30.676
rhand -25.4578 38.733
rfingers 7.12502
rthumb 1.06944 8.75596
lclavicle -2.98177e-014 5.56597e-015
lhumerus 51.7572 -4.97064 70.5925
lradius 92.7912
lwrist 43.9746
lhand -18.6441 26.6794
lfingers 7.12502
lthumb 7.64863 56.5211
rfemur -26.6145 -17.5718 18.82
rtibia 73.0033
rfoot -12.054 -10.0903
rtoes -43.687
lfemur -15.9109 17.7594 -10.7266
ltibia 58.5477
lfoot -14.2797 -23.9454
ltoes 6.2919
254
root -2.32222 15.1626 0.662148 168.475 -70.459 -168.541
lowerback 20.6385 0.731946 -10.6079
upperback 5.85077 -1.63449 1.1247
thorax -4.79461 -0.996007 7.70137
lowerneck 12.091 -10.5987 -22.4571
upperneck -2.63198 -18.8537 37.2726
head 3.4566 -11.1223 16.1954
rclavicle 5.60573e-014 1.59028e-015
rhumerus 52.2176 12.5262 -56.8609
rradius 95.5292
rwrist -29.9829
rhand -25.9799 37.1622
rfingers 7.12502
rthumb 0.565143 7.18323
lclavicle 5.60573e-014 1.59028e-015
lhumerus 48.961 -5.53949 72.3106
lradius 94.5441
lwrist 43.4309
lhand -18.8064 26.23
lfingers 7.12502
lthumb 7.49203 56.0773
rfemur -29.1431 -17.5593 19.3389
rtibia 71.5211
rfoot -12.1149 -9.95505
rtoes -45.4872
lfemur -16.2889 18.3791 -10.5605
ltibia 58.3387
lfoot -14.3394 -23.7294
ltoes 2.19895
255
root -2.37694 15.1955 0.528719 168.907 -72.7631 -168.78
lowerback 21.4674 0.668787 -11.1764
upperback 6.24029 -1.96109 1.05851
thorax -4.70476 -1.19579 8.05675
lowerneck 11.9788 -10.9826 -22.1045
upperneck -3.9013 -19.0716 38.031
head 3.28616 -11.3281 16.4058
rclavicle -3.89618e-014 6.44062e-014
rhumerus 51.1741 14.0399 -56.5833
rradius 96.6607
rwrist -29.085
rhand -26.294 37.1394
rfingers 7.12502
rthumb 0.261748 7.15978
lclavicle -3.89618e-014 6.44062e-014
lhumerus 46.1905 -6.11089 74.2107
lradius 96.428
lwrist 42.6195
lhand -18.745 26.0601
lfingers 7.12502
lthumb 7.55132 55.9053
rfemur -31.3905 -17.4659 19.2297
rtibia 69.6868
rfoot -12.3852 -9.40661
rtoes -46.7598
lfemur -16.6009 18.9843 -10.7544
ltibia 58.0912
lfoot -12.7754 -23.9353
ltoes 9.04371
256
root -2.43816 15.222 0.39296 168.972 -75.072 -168.73
lowerback 22.4104 0.608644 -11.7348
upperback 6.64638 -2.29356 1.17767
thorax -4.63128 -1.40297 8.62481
lowerneck 12.0229 -11.1227 -22.6409
upperneck -5.44285 -19.0396 39.1177
head 3.09422 -11.4574 17.0279
rclavicle -2.34566e-014 1.59028e-015
rhumerus 50.2163 15.7582 -56.1029
rradius 97.6081
rwrist -28.2657
rhand -26.468 37.8213
rfingers 7.12502
rthumb 0.0937557 7.84156
lclavicle -2.34566e-014 1.59028e-015
lhumerus 43.3658 -6.4518 76.6454
lradius 97.9249
lwrist 41.7516
lhand -18.2027 25.6001
lfingers 7.12502
lthumb 8.07466 55.4258
rfemur -33.1892 -17.2161 18.9402
rtibia 67.4781
rfoot -12.5253 -9.04365
rtoes -47.7234
lfemur -16.7962 19.6561 -10.7744
ltibia 57.9884
lfoot -11.701 -23.8774
ltoes 8.41172
257
root -2.4991 15.2414 0.258635 168.9 -77.5369 -168.399
lowerback 23.4049 0.424706 -12.1156
upperback 6.9893 -2.76035 1.25701
thorax -4.61865 -1.66683 9.09054
lowerneck 14.134 -10.1356 -20.849
upperneck -10.6724 -16.1606 39.7866
head 0.218758 -10.566 17.9272
rclavicle 1.66979e-014 -3.33958e-014
rhumerus 49.2151 17.5225 -55.9491
rradius 98.2807
rwrist -27.5085
rhand -26.6357 38.4026
rfingers 7.12502
rthumb -0.0682366 8.42288
lclavicle 1.66979e-014 -3.33958e-014
lhumerus 40.5753 -6.54471 78.872
lradius 99.3772
lwrist 41.4095
lhand -17.626 24.9828
lfingers 7.12502
lthumb 8.63131 54.7864
rfemur -34.815 -16.9367 18.4513
rtibia 64.9288
rfoot -12.4791 -8.67018
rtoes -48.1414
lfemur -17.3279 20.4153 -10.8372
ltibia 58.1075
lfoot -11.0333 -23.6199
ltoes 6.43681
258
root -2.56066 15.2614 0.125809 168.064 -80.1442 -167.052
lowerback 24.3108 0.117211 -12.2075
upperback 7.27894 -3.30071 1.37357
thorax -4.60544 -1.95959 9.45459
lowerneck 14.6466 -10.9763 -19.4784
upperneck -13.8948 -16.2747 39.3284
head -0.876448 -10.831 17.5976
rclavicle 3.73715e-014 -3.4191e-014
rhumerus 48.2405 19.2835 -55.981
rradius 98.8692
rwrist -26.6561
rhand -26.1335 39.8375
rfingers 7.12502
rthumb 0.416763 9.85812
lclavicle 3.73715e-014 -3.4191e-014
lhumerus 37.7691 -6.54442 81.213
lradius 100.69
lwrist 41.0458
lhand -17.0521 24.1577
lfingers 7.12502
lthumb 9.18503 53.9376
rfemur -36.4153 -16.6627 17.8864
rtibia 62.0042
rfoot -12.1923 -8.17901
rtoes -48.5582
lfemur -18.367 21.2542 -10.9299
ltibia 58.4767
lfoot -10.7592 -23.1143
ltoes 2.07986
259
root -2.62599 15.2781 -0.00716524 164.14 -82.5903 -162.592
lowerback 25.217 -0.173199 -12.0007
upperback 7.59971 -3.72746 1.73107
thorax -4.57879 -2.20276 9.89861
lowerneck 11.8405 -14.1493 -19.4849
upperneck -12.7694 -20.6113 38.0171
head 1.15584 -12.528 15.6005
rclavicle -3.93594e-014 9.54166e-015
rhumerus 47.4109 21.1199 -55.7446
rradius 99.4446
rwrist -25.7576
rhand -25.1836 41.0338
rfingers 7.12502
rthumb 1.33427 11.0582
lclavicle -3.93594e-014 9.54166e-015
lhumerus 34.8488 -6.37666 84.0539
lradius 101.897
lwrist 40.4163
lhand -16.3126 23.2502
lfingers 7.12502
lthumb 9.89861 52.9975
rfemur -37.7162 -16.0669 17.374
rtibia 58.7175
rfoot -11.4774 -7.77324
rtoes -49.4372
lfemur -19.5286 22.1069 -10.7055
ltibia 59.0341
lfoot -10.129 -22.7211
ltoes -1.1268
260
root -2.6937 15.29 -0.142798 153.511 -84.7341 -151.466
lowerback 26.2113 -0.52612 -11.6583
upperback 7.95764 -4.20163 2.21237
thorax -4.5316 -2.47818 10.4328
lowerneck 10.7407 -14.6144 -19.4022
upperneck -13.4816 -20.99 38.536
head 1.36453 -12.73 15.5784
rclavicle 1.74931e-014 7.95139e-016
rhumerus 46.7893 23.2497 -55.6856
rradius 99.8185
rwrist -24.7807
rhand -25.3211 38.6928
rfingers 7.12502
rthumb 1.20147 8.7164
lclavicle 1.74931e-014 7.95139e-016
lhumerus 31.754 -5.7126 86.7653
lradius 103.062
lwrist 39.9166
lhand -15.6177 22.3317
lfingers 7.12502
lthumb 10.5689 52.046
rfemur -38.6682 -15.0142 16.8529
rtibia 55.1404
rfoot -10.0669 -7.31865
rtoes -50.1811
lfemur -20.7649 22.9652 -10.1712
ltibia 59.6988
lfoot -9.52723 -22.3027
ltoes -3.8919
